<svg preserveAspectRatio="none" overflow="visible" style="display: block;" width="63.4264" height="7.04749" viewBox="0 0 63.4264 7.04749" fill="none" xmlns="http://www.w3.org/2000/svg">
<g id="Group 1300">
<circle id="Ellipse 172" cx="31.7135" cy="3.52369" r="3.52369" fill="#DDE0E4"/>
<circle id="Ellipse 173" cx="45.8083" cy="3.52369" r="3.52369" fill="#DDE0E4"/>
<circle id="Ellipse 174" cx="59.9027" cy="3.52369" r="3.52369" fill="#DDE0E4"/>
<path id="Union" fill-rule="evenodd" clip-rule="evenodd" d="M21.1423 3.52374C21.1423 5.46982 19.5647 7.04743 17.6187 7.04743C17.5531 7.04743 17.488 7.04565 17.4233 7.04211V7.04733H3.55662C3.54566 7.04743 3.53468 7.04749 3.52369 7.04749C3.5127 7.04749 3.50173 7.04743 3.49076 7.04733H3.2641V7.03807C1.43923 6.90519 0 5.38257 0 3.52379C0 1.66502 1.43923 0.142395 3.2641 0.00951644V4.99192e-05H17.4233V0.00537194C17.488 0.00183932 17.5531 4.99192e-05 17.6187 4.99192e-05C19.5647 4.99192e-05 21.1423 1.57766 21.1423 3.52374Z" fill="#F53838"/>
</g>
</svg>
