<svg preserveAspectRatio="none" overflow="visible" style="display: block;" width="68.4251" height="77.8703" viewBox="0 0 68.4251 77.8703" fill="none" xmlns="http://www.w3.org/2000/svg">
<g id="Illustration/Premium">
<g id="Group 1291">
<path id="Union" fill-rule="evenodd" clip-rule="evenodd" d="M24.3579 18.7368C24.6665 18.067 25.0279 17.5467 25.2667 17.2724C25.2714 17.9194 25.1717 18.4999 25.0172 19.0043C25.4925 19.2335 25.9864 19.5546 26.4583 19.9975C26.0947 19.9865 25.4672 19.8984 24.7659 19.67C24.4426 20.3829 24.034 20.8751 23.766 21.1042C23.7842 20.5043 23.9104 19.9293 24.0878 19.4107C23.5867 19.1886 23.0791 18.8909 22.6265 18.4969C22.9766 18.4558 23.6152 18.4901 24.3579 18.7368Z" fill="url(#paint0_linear_0_74)"/>
<path id="Union_2" fill-rule="evenodd" clip-rule="evenodd" d="M21.9186 12.0265C22.124 11.5807 22.3645 11.2344 22.5235 11.0518C22.5266 11.4824 22.4602 11.8687 22.3575 12.2045C22.6739 12.3571 23.0027 12.5708 23.3168 12.8657C23.0748 12.8583 22.657 12.7997 22.1902 12.6476C21.975 13.1222 21.703 13.4498 21.5246 13.6024C21.5367 13.203 21.6207 12.8202 21.7388 12.475C21.4053 12.3272 21.0675 12.129 20.7662 11.8668C20.9992 11.8395 21.4243 11.8623 21.9186 12.0265Z" fill="url(#paint1_linear_0_74)"/>
<path id="Union_3" fill-rule="evenodd" clip-rule="evenodd" d="M15.3175 5.35647C15.6261 4.68667 15.9875 4.16636 16.2263 3.89202C16.231 4.53907 16.1312 5.11948 15.9768 5.62393C16.4521 5.85317 16.9461 6.17419 17.418 6.61718C17.0544 6.60618 16.4268 6.51809 15.7255 6.28962C15.4022 7.00251 14.9935 7.49472 14.7256 7.72387C14.7438 7.12392 14.87 6.54894 15.0474 6.03028C14.5464 5.80825 14.0387 5.51052 13.5861 5.11653C13.9362 5.0755 14.5749 5.10977 15.3175 5.35647Z" fill="url(#paint2_linear_0_74)"/>
<path id="Union_4" fill-rule="evenodd" clip-rule="evenodd" d="M14.2717 20.3743C14.7257 19.3888 15.2574 18.6232 15.6088 18.2196C15.6157 19.1716 15.469 20.0256 15.2418 20.7679C15.9408 21.1051 16.6673 21.5773 17.3614 22.2289C16.8265 22.2127 15.9035 22.0831 14.8719 21.7472C14.3963 22.7959 13.7952 23.52 13.401 23.8571C13.4277 22.9745 13.6134 22.1287 13.8743 21.3657C13.137 21.039 12.3899 20.6009 11.7239 20.0211C12.239 19.9607 13.1789 20.0111 14.2717 20.3743Z" fill="url(#paint3_linear_0_74)"/>
<circle id="Ellipse 199" cx="17.0028" cy="13.6293" r="0.397721" transform="rotate(21.3865 17.0028 13.6293)" fill="#2F235A"/>
<circle id="Ellipse 200" cx="26.8506" cy="8.62854" r="0.397721" transform="rotate(21.3865 26.8506 8.62854)" fill="#FE9076"/>
<circle id="Ellipse 201" cx="7.94698" cy="10.8011" r="0.397721" transform="rotate(21.3865 7.94698 10.8011)" fill="#FFA400"/>
<circle id="Ellipse 202" cx="16.4874" cy="26.8153" r="0.397721" transform="rotate(21.3865 16.4874 26.8153)" fill="#23BB86"/>
<path id="Vector 95" d="M26.5483 6.72758C26.1614 5.24975 24.7648 1.8699 22.2738 0.173106" stroke="#FE9076" stroke-width="0.346178" stroke-linecap="round"/>
<path id="Vector 96" d="M6.77333 9.19665C5.81053 8.01061 3.14255 5.50943 0.173118 4.99307" stroke="#FFA400" stroke-width="0.346178" stroke-linecap="round"/>
<path id="Vector 97" d="M14.7949 27.3933C13.9417 27.7044 11.7938 28.696 10.028 30.1728" stroke="#23BB86" stroke-width="0.346178" stroke-linecap="round"/>
</g>
<g id="Group 1292">
<path id="Union_5" fill-rule="evenodd" clip-rule="evenodd" d="M44.0673 18.7369C43.7588 18.0671 43.3974 17.5468 43.1586 17.2724C43.1539 17.9195 43.2536 18.4999 43.408 19.0044C42.9327 19.2336 42.4388 19.5546 41.9669 19.9976C42.3305 19.9866 42.958 19.8985 43.6594 19.6701C43.9826 20.3829 44.3913 20.8752 44.6592 21.1043C44.6411 20.5044 44.5148 19.9294 44.3375 19.4107C44.8385 19.1887 45.3462 18.891 45.7987 18.497C45.4487 18.4559 44.81 18.4902 44.0673 18.7369Z" fill="url(#paint4_linear_0_74)"/>
<path id="Union_6" fill-rule="evenodd" clip-rule="evenodd" d="M46.5066 12.0264C46.3012 11.5806 46.0607 11.2343 45.9017 11.0517C45.8986 11.4824 45.9649 11.8687 46.0677 12.2045C45.7513 12.357 45.4225 12.5707 45.1084 12.8656C45.3504 12.8583 45.7682 12.7997 46.2351 12.6476C46.4502 13.1221 46.7222 13.4497 46.9006 13.6023C46.8885 13.2029 46.8045 12.8202 46.6864 12.4749C47.0199 12.3272 47.3577 12.129 47.659 11.8668C47.426 11.8394 47.0009 11.8623 46.5066 12.0264Z" fill="url(#paint5_linear_0_74)"/>
<path id="Union_7" fill-rule="evenodd" clip-rule="evenodd" d="M53.1078 5.35618C52.7992 4.68637 52.4378 4.16606 52.199 3.89171C52.1943 4.53877 52.294 5.11919 52.4485 5.62365C51.9732 5.85289 51.4793 6.1739 51.0074 6.61688C51.371 6.60587 51.9985 6.51779 52.6998 6.28933C53.0231 7.00221 53.4317 7.49442 53.6997 7.72356C53.6815 7.12363 53.5553 6.54865 53.3779 6.03C53.879 5.80796 54.3866 5.51022 54.8392 5.11623C54.4891 5.07519 53.8505 5.10947 53.1078 5.35618Z" fill="url(#paint6_linear_0_74)"/>
<path id="Union_8" fill-rule="evenodd" clip-rule="evenodd" d="M54.1536 20.3743C53.6996 19.3888 53.1679 18.6232 52.8165 18.2196C52.8096 19.1717 52.9563 20.0257 53.1835 20.7679C52.4845 21.1051 51.758 21.5773 51.0639 22.2289C51.5988 22.2127 52.5218 22.0832 53.5534 21.7472C54.029 22.7959 54.6301 23.52 55.0243 23.8571C54.9976 22.9746 54.8119 22.1287 54.551 21.3657C55.2883 21.039 56.0354 20.6009 56.7014 20.0211C56.1863 19.9607 55.2464 20.0112 54.1536 20.3743Z" fill="url(#paint7_linear_0_74)"/>
<circle id="Ellipse 199_2" cx="0.397721" cy="0.397721" r="0.397721" transform="matrix(-0.931142 0.364658 0.364658 0.931142 51.6476 13.114)" fill="#2F235A"/>
<circle id="Ellipse 200_2" cx="0.397721" cy="0.397721" r="0.397721" transform="matrix(-0.931142 0.364658 0.364658 0.931142 41.7998 8.11325)" fill="#FE9076"/>
<circle id="Ellipse 201_2" cx="0.397721" cy="0.397721" r="0.397721" transform="matrix(-0.931142 0.364658 0.364658 0.931142 60.7035 10.2858)" fill="#FFA400"/>
<circle id="Ellipse 202_2" cx="0.397721" cy="0.397721" r="0.397721" transform="matrix(-0.931142 0.364658 0.364658 0.931142 52.163 26.3)" fill="#23BB86"/>
<path id="Vector 95_2" d="M41.8768 6.72766C42.2637 5.24983 43.6604 1.86998 46.1514 0.173187" stroke="#FE9076" stroke-width="0.346178" stroke-linecap="round"/>
<path id="Vector 96_2" d="M61.6518 9.19673C62.6146 8.01069 65.2826 5.50951 68.252 4.99316" stroke="#FFA400" stroke-width="0.346178" stroke-linecap="round"/>
<path id="Vector 97_2" d="M53.6302 27.3934C54.4834 27.7045 56.6314 28.6961 58.3972 30.1729" stroke="#23BB86" stroke-width="0.346178" stroke-linecap="round"/>
</g>
<g id="Group 1279">
<rect id="Rectangle 320" x="12.5141" y="48.6893" width="42.2141" height="29.181" fill="url(#paint8_linear_0_74)"/>
<g id="Mask Group">
<mask id="mask0_0_74" style="mask-type:alpha" maskUnits="userSpaceOnUse" x="12" y="48" width="43" height="30">
<rect id="Rectangle 322" x="12.5141" y="48.6893" width="42.2141" height="29.181" fill="#C4C4C4"/>
</mask>
<g mask="url(#mask0_0_74)">
<path id="Rectangle 325" d="M14.5116 47.9463L43.2565 47.9462L36.7594 59.2274L8.01457 59.2274L14.5116 47.9463Z" fill="black" fill-opacity="0.07"/>
<rect id="Rectangle 321" x="41.2214" y="48.6893" width="42.2141" height="29.181" fill="url(#paint9_linear_0_74)"/>
</g>
</g>
<path id="Rectangle 323" d="M12.4769 48.6893L41.2218 48.6893L35.6692 57.9554L6.92431 57.9554L12.4769 48.6893Z" fill="url(#paint10_linear_0_74)"/>
<g id="Mask Group_2">
<mask id="mask1_0_74" style="mask-type:alpha" maskUnits="userSpaceOnUse" x="41" y="48" width="14" height="30">
<rect id="Rectangle 326" x="41.2214" y="48.6893" width="13.5065" height="29.181" fill="#C4C4C4"/>
</mask>
<g mask="url(#mask1_0_74)">
<path id="Rectangle 327" d="M53.084 48.6408L39.5563 48.6408L45.9127 59.309L59.4404 59.309L53.084 48.6408Z" fill="black" fill-opacity="0.07"/>
</g>
</g>
<path id="Rectangle 324" d="M54.749 48.6893L41.2214 48.6893L46.774 57.9554L60.3017 57.9554L54.749 48.6893Z" fill="url(#paint11_linear_0_74)"/>
</g>
<circle id="Ellipse 213" cx="26.5749" cy="41.2567" r="3.98921" fill="url(#paint12_linear_0_74)"/>
<circle id="Ellipse 214" cx="41.9049" cy="31.4218" r="3.85479" fill="url(#paint13_linear_0_74)"/>
<circle id="Ellipse 215" cx="27.4556" cy="26.4494" r="3.10851" fill="url(#paint14_linear_0_74)"/>
<circle id="Ellipse 216" cx="36.0873" cy="19.3507" r="2.812" fill="url(#paint15_linear_0_74)"/>
<circle id="Ellipse 217" cx="30.5641" cy="11.5407" r="2.17835" fill="url(#paint16_linear_0_74)"/>
<circle id="Ellipse 226" cx="34.3071" cy="30.6466" r="0.775212" fill="#FFA800" fill-opacity="0.23"/>
<circle id="Ellipse 227" cx="47.1995" cy="24.1161" r="0.775212" fill="#FFA800" fill-opacity="0.23"/>
<circle id="Ellipse 231" cx="47.9751" cy="11.5407" r="0.775212" fill="#FFA800" fill-opacity="0.23"/>
<circle id="Ellipse 228" cx="21.8107" cy="12.9438" r="0.775212" fill="#FFA800" fill-opacity="0.23"/>
<circle id="Ellipse 229" cx="37.5956" cy="42.9784" r="0.775212" fill="#FFA800" fill-opacity="0.23"/>
<circle id="Ellipse 230" cx="18.143" cy="29.0961" r="0.775212" fill="#FFA800" fill-opacity="0.23"/>
<path id="Vector 100" d="M54.8277 48.8273H12.4805L5.97705 8.72868H62.6371L54.8277 48.8273Z" fill="url(#paint17_linear_0_74)"/>
</g>
<defs>
<linearGradient id="paint0_linear_0_74" x1="25.1496" y1="17.6969" x2="23.7405" y2="21.2948" gradientUnits="userSpaceOnUse">
<stop stop-color="#FFE89E"/>
<stop offset="1" stop-color="#FFBF1A"/>
</linearGradient>
<linearGradient id="paint1_linear_0_74" x1="22.4456" y1="11.3344" x2="21.5077" y2="13.7292" gradientUnits="userSpaceOnUse">
<stop stop-color="#FFE89E"/>
<stop offset="1" stop-color="#FFBF1A"/>
</linearGradient>
<linearGradient id="paint2_linear_0_74" x1="16.1092" y1="4.31656" x2="14.7002" y2="7.91443" gradientUnits="userSpaceOnUse">
<stop stop-color="#FFE89E"/>
<stop offset="1" stop-color="#FFBF1A"/>
</linearGradient>
<linearGradient id="paint3_linear_0_74" x1="15.4359" y1="18.8439" x2="13.363" y2="24.1372" gradientUnits="userSpaceOnUse">
<stop stop-color="#FFE89E"/>
<stop offset="1" stop-color="#FFBF1A"/>
</linearGradient>
<linearGradient id="paint4_linear_0_74" x1="43.2757" y1="17.697" x2="44.6847" y2="21.2948" gradientUnits="userSpaceOnUse">
<stop stop-color="#FFE89E"/>
<stop offset="1" stop-color="#FFBF1A"/>
</linearGradient>
<linearGradient id="paint5_linear_0_74" x1="45.9796" y1="11.3343" x2="46.9174" y2="13.7291" gradientUnits="userSpaceOnUse">
<stop stop-color="#FFE89E"/>
<stop offset="1" stop-color="#FFBF1A"/>
</linearGradient>
<linearGradient id="paint6_linear_0_74" x1="52.3161" y1="4.31624" x2="53.7252" y2="7.91411" gradientUnits="userSpaceOnUse">
<stop stop-color="#FFE89E"/>
<stop offset="1" stop-color="#FFBF1A"/>
</linearGradient>
<linearGradient id="paint7_linear_0_74" x1="52.9894" y1="18.844" x2="55.0623" y2="24.1373" gradientUnits="userSpaceOnUse">
<stop stop-color="#FFE89E"/>
<stop offset="1" stop-color="#FFBF1A"/>
</linearGradient>
<linearGradient id="paint8_linear_0_74" x1="26.6155" y1="43.2867" x2="9.79097" y2="89.6264" gradientUnits="userSpaceOnUse">
<stop stop-color="#FFD481"/>
<stop offset="1" stop-color="#FA620C"/>
</linearGradient>
<linearGradient id="paint9_linear_0_74" x1="19.7165" y1="46.8384" x2="70.7772" y2="101.404" gradientUnits="userSpaceOnUse">
<stop stop-color="#FFD481"/>
<stop offset="0.83311" stop-color="#FA620C"/>
</linearGradient>
<linearGradient id="paint10_linear_0_74" x1="13.0685" y1="45.3775" x2="11.7024" y2="65.1208" gradientUnits="userSpaceOnUse">
<stop stop-color="#FFD481"/>
<stop offset="1" stop-color="#FA620C"/>
</linearGradient>
<linearGradient id="paint11_linear_0_74" x1="56.8835" y1="45.3775" x2="59.3133" y2="64.9131" gradientUnits="userSpaceOnUse">
<stop stop-color="#FFD481"/>
<stop offset="1" stop-color="#FA620C"/>
</linearGradient>
<linearGradient id="paint12_linear_0_74" x1="26.877" y1="35.9509" x2="26.1182" y2="46.7188" gradientUnits="userSpaceOnUse">
<stop stop-color="#FF9F81"/>
<stop offset="1" stop-color="#F53838"/>
</linearGradient>
<linearGradient id="paint13_linear_0_74" x1="42.1968" y1="26.2948" x2="41.4635" y2="36.6998" gradientUnits="userSpaceOnUse">
<stop stop-color="#FF9F81"/>
<stop offset="1" stop-color="#F53838"/>
</linearGradient>
<linearGradient id="paint14_linear_0_74" x1="27.691" y1="22.315" x2="27.0997" y2="30.7056" gradientUnits="userSpaceOnUse">
<stop stop-color="#FF9F81"/>
<stop offset="1" stop-color="#F53838"/>
</linearGradient>
<linearGradient id="paint15_linear_0_74" x1="36.3003" y1="15.6106" x2="35.7654" y2="23.2009" gradientUnits="userSpaceOnUse">
<stop stop-color="#FF9F81"/>
<stop offset="1" stop-color="#F53838"/>
</linearGradient>
<linearGradient id="paint16_linear_0_74" x1="30.729" y1="8.64342" x2="30.3147" y2="14.5233" gradientUnits="userSpaceOnUse">
<stop stop-color="#FF9F81"/>
<stop offset="1" stop-color="#F53838"/>
</linearGradient>
<linearGradient id="paint17_linear_0_74" x1="33.8415" y1="8.72868" x2="33.8415" y2="93.9193" gradientUnits="userSpaceOnUse">
<stop stop-color="white" stop-opacity="0"/>
<stop offset="1" stop-color="#FE9277"/>
</linearGradient>
</defs>
</svg>
